<svg xmlns="http://www.w3.org/2000/svg" xmlns:xlink="http://www.w3.org/1999/xlink" width="17.955" height="17.955" viewBox="0 0 17.955 17.955">
  <defs>
    <clipPath id="clip-path">
      <rect id="Rectangle_239" data-name="Rectangle 239" width="17.955" height="17.955" fill="#aaaebf"/>
    </clipPath>
  </defs>
  <g id="Group_275" data-name="Group 275" transform="translate(0 0)">
    <g id="Group_274" data-name="Group 274" transform="translate(0 0)" clip-path="url(#clip-path)">
      <path id="Path_95" data-name="Path 95" d="M8.977,0a8.977,8.977,0,1,0,8.978,8.977A8.987,8.987,0,0,0,8.977,0m0,15.71a6.733,6.733,0,1,1,6.733-6.733A6.732,6.732,0,0,1,8.977,15.71m2.573-9.771-3.7,3.7L6.4,8.184A1.122,1.122,0,0,0,4.817,9.771l2.245,2.244a1.123,1.123,0,0,0,1.587,0l4.488-4.489a1.122,1.122,0,1,0-1.586-1.587" transform="translate(0 0)" fill="#aaaebf" fill-rule="evenodd"/>
    </g>
  </g>
</svg>
