<svg id="Group_238" data-name="Group 238" xmlns="http://www.w3.org/2000/svg" xmlns:xlink="http://www.w3.org/1999/xlink" width="25" height="25" viewBox="0 0 25 25">
  <defs>
    <clipPath id="clip-path">
      <rect id="Rectangle_226" data-name="Rectangle 226" width="25" height="25" fill="#eb1b23"/>
    </clipPath>
  </defs>
  <g id="Group_237" data-name="Group 237" transform="translate(0 0)" clip-path="url(#clip-path)">
    <path id="Path_87" data-name="Path 87" d="M21.874,17.187H15.625v4.687A3.129,3.129,0,0,1,12.5,25H10.936a3.126,3.126,0,0,1-2.9-1.964L5.7,17.187H3.125A3.127,3.127,0,0,1,0,14.062V3.125A3.127,3.127,0,0,1,3.125,0H6.249A3.148,3.148,0,0,1,7.813.417,3.132,3.132,0,0,1,9.374,0h6.252a3.129,3.129,0,0,1,2.209.915l4,4,2.247,2.246A3.126,3.126,0,0,1,25,9.375v4.687a3.127,3.127,0,0,1-3.126,3.125M4.686,3.125H3.124V14.063H4.686Zm17.188,6.25L19.628,7.129l-4-4H9.374L7.813,4.688v9.375l3.123,7.812H12.5V14.062h9.375Z" transform="translate(0 0)" fill="#eb1b23" fill-rule="evenodd"/>
  </g>
</svg>
