<svg xmlns="http://www.w3.org/2000/svg" xmlns:xlink="http://www.w3.org/1999/xlink" width="68" height="64" viewBox="0 0 68 64">
  <defs>
    <clipPath id="clip-path">
      <rect id="Rectangle_26" data-name="Rectangle 26" width="68" height="64" transform="translate(-0.438)" fill="#aaaebf"/>
    </clipPath>
  </defs>
  <g id="Group_10" data-name="Group 10" transform="translate(0.438)" opacity="0.2">
    <g id="Group_9" data-name="Group 9" clip-path="url(#clip-path)">
      <path id="Path_7" data-name="Path 7" d="M58.441,0H8.349A8.157,8.157,0,0,0,0,7.891V55.222a8.157,8.157,0,0,0,8.349,7.891H58.441a8.155,8.155,0,0,0,8.348-7.891V7.891A8.155,8.155,0,0,0,58.441,0M16.7,55.222a21.614,21.614,0,0,1,33.393,0Zm8.348-23.664a8.156,8.156,0,0,1,8.349-7.891,8.156,8.156,0,0,1,8.349,7.891,8.156,8.156,0,0,1-8.349,7.888,8.156,8.156,0,0,1-8.349-7.888m33.4,23.664h-.073a7.557,7.557,0,0,0-1.6-4.74A29.167,29.167,0,0,0,45.775,42.1a.079.079,0,0,1,.02-.011,15.267,15.267,0,0,0,4.3-10.531c0-8.721-7.472-15.779-16.7-15.779S16.7,22.838,16.7,31.558a15.267,15.267,0,0,0,4.3,10.531.063.063,0,0,1,.021.011,29.126,29.126,0,0,0-11,8.383,7.541,7.541,0,0,0-1.6,4.74H8.349V7.891H58.441Z" transform="translate(0 0)" fill="#aaaebf" fill-rule="evenodd"/>
    </g>
  </g>
</svg>
