<svg xmlns="http://www.w3.org/2000/svg" xmlns:xlink="http://www.w3.org/1999/xlink" width="23.926" height="27.344" viewBox="0 0 23.926 27.344">
  <defs>
    <clipPath id="clip-path">
      <rect id="Rectangle_85" data-name="Rectangle 85" width="23.926" height="27.344" fill="#aaaebf"/>
    </clipPath>
  </defs>
  <g id="Group_71" data-name="Group 71" clip-path="url(#clip-path)">
    <path id="Path_47" data-name="Path 47" d="M20.508,8.545H18.8V6.835a6.836,6.836,0,0,0-13.673,0V8.545H3.417A3.418,3.418,0,0,0,0,11.962V23.925a3.418,3.418,0,0,0,3.417,3.419h17.09a3.418,3.418,0,0,0,3.418-3.419V11.962a3.419,3.419,0,0,0-3.418-3.417M8.545,6.835a3.418,3.418,0,0,1,6.836,0V8.545H8.545Zm11.963,17.09H3.417V11.962h17.09ZM10.283,18.651c0,.052-.03.1-.03.147v3.419h3.418V18.8c0-.05-.025-.1-.03-.147a2.557,2.557,0,0,0-.824-4.979H11.108a2.557,2.557,0,0,0-.825,4.979" transform="translate(0 0)" fill="#aaaebf" fill-rule="evenodd"/>
  </g>
</svg>
