<svg xmlns="http://www.w3.org/2000/svg" width="25.78" height="25.781" viewBox="0 0 25.78 25.781">
  <path id="Path_4" data-name="Path 4" d="M18.943,13.315a7.981,7.981,0,0,0,2-5.258,8.057,8.057,0,1,0-16.113,0,7.976,7.976,0,0,0,2,5.258A9.683,9.683,0,0,0,0,22.558a3.224,3.224,0,0,0,3.222,3.224H22.558a3.224,3.224,0,0,0,3.222-3.224,9.683,9.683,0,0,0-6.837-9.242M12.89,3.223A4.834,4.834,0,1,1,8.055,8.057,4.827,4.827,0,0,1,12.89,3.223M3.222,22.558a6.445,6.445,0,0,1,6.446-6.444h6.444a6.445,6.445,0,0,1,6.446,6.444Z" fill="#fff" fill-rule="evenodd"/>
</svg>
