<svg xmlns="http://www.w3.org/2000/svg" width="20.305" height="19.394" viewBox="0 0 20.305 19.394">
  <path id="Path_78" data-name="Path 78" d="M108.18,7.228a2.538,2.538,0,0,0-2.086-1.718L102.153,5l-1.709-3.559a2.548,2.548,0,0,0-4.584,0L94.149,5l-3.943.513a2.535,2.535,0,0,0-2.083,1.718,2.507,2.507,0,0,0,.668,2.606l2.887,2.711-.728,3.876a2.507,2.507,0,0,0,1,2.5,2.559,2.559,0,0,0,2.705.176l3.494-1.885,3.492,1.885a2.557,2.557,0,0,0,2.7-.176,2.5,2.5,0,0,0,1-2.5l-.727-3.876,2.888-2.711a2.507,2.507,0,0,0,.668-2.606m-6.3,4.431.98,5.221-4.706-2.536L93.445,16.88l.98-5.221L90.538,8.005l5.311-.689,2.3-4.8,2.3,4.8,5.312.689Z" transform="translate(-88 -0.003)" fill="#aaaebf" fill-rule="evenodd"/>
</svg>
