<svg xmlns="http://www.w3.org/2000/svg" width="20.305" height="19.395" viewBox="0 0 20.305 19.395">
  <path id="Path_82" data-name="Path 82" d="M19.514,9.832l-2.889,2.709.728,3.875a2.505,2.505,0,0,1-1,2.5,2.552,2.552,0,0,1-2.7.174L10.153,17.2,6.659,19.088a2.557,2.557,0,0,1-2.707-.174,2.508,2.508,0,0,1-1-2.5l.728-3.875L.792,9.832A2.513,2.513,0,0,1,2.207,5.508L6.15,4.994,7.86,1.436a2.547,2.547,0,0,1,4.583,0l1.71,3.559,3.943.513a2.512,2.512,0,0,1,1.418,4.324" transform="translate(0)" fill="#3d4461" fill-rule="evenodd"/>
</svg>
