<svg xmlns="http://www.w3.org/2000/svg" xmlns:xlink="http://www.w3.org/1999/xlink" width="160" height="159.996" viewBox="0 0 160 159.996">
  <defs>
    <clipPath id="clip-path">
      <rect id="Rectangle_298" data-name="Rectangle 298" width="160" height="159.996" fill="#eeeff2"/>
    </clipPath>
  </defs>
  <g id="Group_432" data-name="Group 432" transform="translate(0 0)">
    <g id="Group_431" data-name="Group 431" transform="translate(0 0)" clip-path="url(#clip-path)">
      <path id="Path_237" data-name="Path 237" d="M80,0a80,80,0,1,0,80,79.993A80.086,80.086,0,0,0,80,0m0,139.991a60,60,0,1,1,60-60,59.989,59.989,0,0,1-60,60M102.93,52.923,70,85.858,57.072,72.928a10,10,0,1,0-14.144,14.14l20,20a10.006,10.006,0,0,0,14.144,0l39.993-40a10,10,0,1,0-14.137-14.14" transform="translate(0 0.001)" fill="#eeeff2" fill-rule="evenodd"/>
    </g>
  </g>
</svg>
