<?xml version="1.0" encoding="utf-8"?>
<!-- Generator: Adobe Illustrator 26.4.1, SVG Export Plug-In . SVG Version: 6.00 Build 0)  -->
<svg version="1.1" id="Layer_1" xmlns="http://www.w3.org/2000/svg" xmlns:xlink="http://www.w3.org/1999/xlink" x="0px" y="0px"
	 viewBox="0 0 21.8 14.4" style="enable-background:new 0 0 21.8 14.4;" xml:space="preserve">
<style type="text/css">
	.st0{fill-rule:evenodd;clip-rule:evenodd;fill:#3D4461;}
</style>
<g>
	<g id="Group_331" transform="translate(499.076 751.911)">
		<g id="Path_231">
			<path class="st0" d="M-477.5-744.1l-6.2,6.3c-0.4,0.3-0.9,0.3-1.2,0c0,0,0,0,0,0c-0.4-0.3-0.4-0.9,0-1.3l4.6-4.7h-17.7
				c-0.6,0-1-0.5-1-1s0.4-1,1-1h17.7l-4.6-4.7c-0.4-0.3-0.4-0.9,0-1.3c0.3-0.3,0.9-0.4,1.2,0c0,0,0,0,0,0l6.2,6.3
				C-477.2-745-477.2-744.4-477.5-744.1z"/>
		</g>
	</g>
</g>
</svg>
