<svg id="Group_6" data-name="Group 6" xmlns="http://www.w3.org/2000/svg" xmlns:xlink="http://www.w3.org/1999/xlink" width="14.619" height="14.767" viewBox="0 0 14.619 14.767">
  <defs>
    <clipPath id="clip-path">
      <rect id="Rectangle_24" data-name="Rectangle 24" width="14.619" height="14.767" transform="translate(0 0)" fill="#3d4461"/>
    </clipPath>
  </defs>
  <g id="Group_5" data-name="Group 5" clip-path="url(#clip-path)">
    <path id="Path_6" data-name="Path 6" d="M7.577,10.425,5.75,12.272a2.121,2.121,0,0,1-1.578.646,2.363,2.363,0,0,1-1.621-.726A2.253,2.253,0,0,1,2.471,8.96L4.3,7.113a.93.93,0,0,0,0-1.306.905.905,0,0,0-1.292,0L1.178,7.654A4.12,4.12,0,0,0,1.257,13.5a4.177,4.177,0,0,0,2.87,1.266h.1a3.929,3.929,0,0,0,2.816-1.188L8.87,11.731a.929.929,0,0,0,0-1.307.909.909,0,0,0-1.293,0m2.206-5.54a.905.905,0,0,0-1.292,0L4.836,8.579a.928.928,0,0,0,0,1.305.907.907,0,0,0,1.292,0L9.783,6.19a.925.925,0,0,0,0-1.305m3.58-3.615a4.019,4.019,0,0,0-5.786-.08L5.75,3.037a.927.927,0,0,0,0,1.305.907.907,0,0,0,1.292,0L8.87,2.5a2.2,2.2,0,0,1,3.2.08,2.254,2.254,0,0,1,.078,3.232L10.319,7.654a.932.932,0,0,0,0,1.307.908.908,0,0,0,1.293,0l1.829-1.847a4.118,4.118,0,0,0-.078-5.844" transform="translate(0 0)" fill="#3d4461" fill-rule="evenodd"/>
  </g>
</svg>
