<svg xmlns="http://www.w3.org/2000/svg" xmlns:xlink="http://www.w3.org/1999/xlink" width="73" height="65" viewBox="0 0 73 65">
  <defs>
    <clipPath id="clip-path">
      <rect id="Rectangle_21" data-name="Rectangle 21" width="73" height="65" transform="translate(0.253 0)" fill="#aaaebf"/>
    </clipPath>
  </defs>
  <g id="Group_3" data-name="Group 3" transform="translate(-0.253 0)" opacity="0.2">
    <g id="Group_2" data-name="Group 2" transform="translate(0 0)" clip-path="url(#clip-path)">
      <path id="Path_5" data-name="Path 5" d="M35.457,0C15.907,0,0,15.027,0,33.507A33.334,33.334,0,0,0,16.776,61.966a.14.14,0,0,1,.057.04.162.162,0,0,0,.034.015.282.282,0,0,1,.038.025,37.148,37.148,0,0,0,37.175-.04,33.323,33.323,0,0,0,16.835-28.5C70.915,15.027,55.007,0,35.457,0m0,58.633A27.238,27.238,0,0,1,21.539,54.9a23.165,23.165,0,0,1,27.833,0,27.224,27.224,0,0,1-13.915,3.729M26.594,33.507a8.634,8.634,0,0,1,8.863-8.378,8.627,8.627,0,0,1,8.862,8.378,8.627,8.627,0,0,1-8.862,8.376,8.634,8.634,0,0,1-8.863-8.376M55.981,49.4a9.093,9.093,0,0,0-1.054-1.029,31.4,31.4,0,0,0-6.41-3.633,16.145,16.145,0,0,0,4.667-11.23c0-9.237-7.951-16.754-17.727-16.754S17.728,24.27,17.728,33.507a16.15,16.15,0,0,0,4.661,11.23A31.114,31.114,0,0,0,16,48.37,8.087,8.087,0,0,0,14.934,49.4,24.141,24.141,0,0,1,8.865,33.507c0-13.862,11.919-25.129,26.592-25.129S62.051,19.646,62.051,33.507A24.15,24.15,0,0,1,55.981,49.4" transform="translate(0.425 -0.45)" fill="#aaaebf" fill-rule="evenodd"/>
    </g>
  </g>
</svg>
