<svg xmlns="http://www.w3.org/2000/svg" xmlns:xlink="http://www.w3.org/1999/xlink" width="66.276" height="62.628" viewBox="0 0 66.276 62.628">
  <defs>
    <clipPath id="clip-path">
      <rect id="Rectangle_45" data-name="Rectangle 45" width="66.277" height="62.628" fill="#aaaebf"/>
    </clipPath>
  </defs>
  <g id="Group_37" data-name="Group 37" transform="translate(0 0)" opacity="0.2">
    <g id="Group_38" data-name="Group 38" transform="translate(0 0)" clip-path="url(#clip-path)">
      <path id="Path_12" data-name="Path 12" d="M33.139,0C14.866,0,0,14.047,0,31.314S14.866,62.628,33.139,62.628,66.277,48.581,66.277,31.314,51.411,0,33.139,0m0,54.8C19.418,54.8,8.285,44.281,8.285,31.314S19.418,7.828,33.139,7.828,57.993,18.344,57.993,31.314,46.86,54.8,33.139,54.8M45.564,27.4H37.281V19.571a4.149,4.149,0,0,0-8.285,0V31.314a4.036,4.036,0,0,0,4.144,3.915H45.564a3.921,3.921,0,1,0,0-7.83" transform="translate(0 0)" fill="#aaaebf" fill-rule="evenodd"/>
    </g>
  </g>
</svg>
