<svg xmlns="http://www.w3.org/2000/svg" width="68.02" height="64.282" viewBox="0 0 68.02 64.282">
  <path id="Path_229" data-name="Path 229" d="M390.5,0H339.478a8.276,8.276,0,0,0-8.5,8.031V48.208a8.28,8.28,0,0,0,8.5,8.034,8.025,8.025,0,0,0,4.89,7.278,8.949,8.949,0,0,0,3.612.761,8.823,8.823,0,0,0,5.435-1.861l7.865-6.179H390.5a8.275,8.275,0,0,0,8.5-8.034V8.031A8.271,8.271,0,0,0,390.5,0m0,48.208H358.207L347.98,56.242V48.208h-8.5V8.031H390.5ZM357.731,39a4.42,4.42,0,0,0,6.011,0l17.008-16.074a3.862,3.862,0,0,0,0-5.678,4.432,4.432,0,0,0-6.013,0l-14,13.229-5.5-5.192a4.42,4.42,0,0,0-6.009,0,3.859,3.859,0,0,0,0,5.681Z" transform="translate(-330.977)" fill="#fff" fill-rule="evenodd"/>
</svg>
