<svg xmlns="http://www.w3.org/2000/svg" width="68.021" height="64.28" viewBox="0 0 68.021 64.28">
  <path id="Path_230" data-name="Path 230" d="M59.515,0H8.5A8.28,8.28,0,0,0,0,8.031v48.21a7.966,7.966,0,0,0,4.276,6.973,8.918,8.918,0,0,0,8.536-.042l12.48-6.931H59.515a8.284,8.284,0,0,0,8.505-8.034V8.031A8.283,8.283,0,0,0,59.515,0m0,48.206H22.981L8.5,56.241V8.031H59.515ZM34.006,44.191a4.023,4.023,0,1,0-4.246-4.016,4.139,4.139,0,0,0,4.246,4.016m0-12.055A4.141,4.141,0,0,0,38.26,28.12V16.068a4.257,4.257,0,0,0-8.5,0V28.12a4.14,4.14,0,0,0,4.246,4.016" fill="#fff" fill-rule="evenodd"/>
</svg>
