<svg xmlns="http://www.w3.org/2000/svg" xmlns:xlink="http://www.w3.org/1999/xlink" width="21.713" height="28.518" viewBox="0 0 21.713 28.518">
  <defs>
    <clipPath id="clip-path">
      <rect id="Rectangle_81" data-name="Rectangle 81" width="21.713" height="28.518" fill="#fff"/>
    </clipPath>
  </defs>
  <g id="Group_66" data-name="Group 66" clip-path="url(#clip-path)">
    <path id="Path_40" data-name="Path 40" d="M18.612,1.783H16.643A3.053,3.053,0,0,0,13.959,0h-6.2A3.056,3.056,0,0,0,5.07,1.783H3.1A3.367,3.367,0,0,0,0,5.347V24.954a3.368,3.368,0,0,0,3.1,3.564h15.51a3.368,3.368,0,0,0,3.1-3.564V5.347a3.367,3.367,0,0,0-3.1-3.564M7.755,3.566h6.2V5.347h-6.2ZM18.612,24.954H3.1V5.347H4.653a3.369,3.369,0,0,0,3.1,3.566h6.2a3.369,3.369,0,0,0,3.1-3.566h1.551ZM13.959,12.477h-6.2A1.678,1.678,0,0,0,6.2,14.26a1.68,1.68,0,0,0,1.551,1.783h6.2a1.68,1.68,0,0,0,1.55-1.783,1.678,1.678,0,0,0-1.55-1.783m-3.1,5.347h-3.1A1.68,1.68,0,0,0,6.2,19.607,1.68,1.68,0,0,0,7.755,21.39h3.1a1.68,1.68,0,0,0,1.551-1.783,1.679,1.679,0,0,0-1.551-1.783" transform="translate(0 0)" fill="#fff" fill-rule="evenodd"/>
  </g>
</svg>
