<svg xmlns="http://www.w3.org/2000/svg" xmlns:xlink="http://www.w3.org/1999/xlink" width="25" height="25" viewBox="0 0 25 25">
  <defs>
    <clipPath id="clip-path">
      <rect id="Rectangle_226" data-name="Rectangle 226" width="25" height="25" fill="#aaaebf"/>
    </clipPath>
  </defs>
  <g id="Group_239" data-name="Group 239" transform="translate(0 0)">
    <g id="Group_237" data-name="Group 237" transform="translate(0 0.001)" clip-path="url(#clip-path)">
      <path id="Path_87" data-name="Path 87" d="M21.874,7.813H15.625V3.126A3.129,3.129,0,0,0,12.5,0H10.936a3.126,3.126,0,0,0-2.9,1.964L5.7,7.813H3.125A3.127,3.127,0,0,0,0,10.938V21.876A3.127,3.127,0,0,0,3.125,25H6.249a3.148,3.148,0,0,0,1.564-.417A3.132,3.132,0,0,0,9.374,25h6.252a3.129,3.129,0,0,0,2.209-.915l4-4,2.247-2.246A3.126,3.126,0,0,0,25,15.625V10.938a3.127,3.127,0,0,0-3.126-3.125M4.686,21.876H3.124V10.938H4.686Zm17.188-6.25-2.246,2.246-4,4H9.374L7.813,20.313V10.938l3.123-7.812H12.5v7.812h9.375Z" transform="translate(0 0)" fill="#aaaebf" fill-rule="evenodd"/>
    </g>
  </g>
</svg>
